# xmcd
#
# Track frame offsets:
#	150
#	13225
#	25539
#	42173
#	57861
#	71660
#	87459
#	101544
#	112834
#	125350
#
# Disc length: 1876 seconds
#
# Revision: 1
# Processed by: cddbd v1.5.1PL2 Copyright (c) Steve Scherf et al.
# Submitted via: audiograbber 1.83.01
#
DISCID=7907520a
DTITLE=Laurie Hayes - Laurie Hayes
DYEAR=2004
DGENRE=Country
TTITLE0=Trouble With Me
TTITLE1=They Always Look Better When They're Leaving
TTITLE2=Let's Go Slow
TTITLE3=So This Is How It Feels
TTITLE4=A Woman Needs
TTITLE5=That's How Much
TTITLE6=I Remember
TTITLE7=Don't Call Me
TTITLE8=I'm All About That
TTITLE9=You Believe In Angels
EXTD=
EXTT0=
EXTT1=
EXTT2=
EXTT3=
EXTT4=
EXTT5=
EXTT6=
EXTT7=
EXTT8=
EXTT9=
PLAYORDER=
